<svg width="168" height="38" viewBox="0 0 168 38" fill="none" xmlns="http://www.w3.org/2000/svg">
<g clip-path="url(#clip0_1_6)">
<path fill-rule="evenodd" clip-rule="evenodd" d="M3.28622 16.366L7.3601 18.3115L12.2605 8.259C12.4418 7.88757 12.7234 7.57465 13.0733 7.35587C13.4232 7.13709 13.8273 7.02124 14.2396 7.0215H25.5839C27.209 7.0215 28.2744 8.7235 27.5645 10.1865L25.5345 14.3715C25.407 14.6344 25.3331 14.9202 25.317 15.2121C25.3008 15.504 25.3429 15.7962 25.4406 16.0717C25.5384 16.3471 25.6899 16.6002 25.8862 16.8163C26.0826 17.0323 26.32 17.207 26.5844 17.33L30.7505 19.275L33.6603 13.691C36.9087 7.458 32.3891 1.32523e-06 25.3645 1.32523e-06H14.1728C12.5063 -0.000914066 10.8738 0.472411 9.46477 1.365C8.05579 2.25758 6.92821 3.53279 6.21301 5.0425L2.24482 13.4355C1.99567 13.9627 1.96547 14.5676 2.16085 15.1171C2.35623 15.6666 2.7612 16.1159 3.28672 16.366H3.28622ZM35.0995 21.496L31.0257 19.551L26.1252 29.6035C25.9439 29.9748 25.6622 30.2877 25.3124 30.5063C24.9625 30.725 24.5584 30.8408 24.1461 30.8405H12.8019C11.1767 30.8405 10.1114 29.139 10.8213 27.6755L12.8508 23.4905C12.9782 23.2276 13.0521 22.9419 13.0682 22.6501C13.0843 22.3583 13.0423 22.0661 12.9446 21.7908C12.8469 21.5154 12.6955 21.2623 12.4992 21.0463C12.3029 20.8302 12.0657 20.6556 11.8014 20.5325L7.63528 18.587L4.72544 24.1715C1.4776 30.4045 5.99666 37.8625 13.0212 37.8625H24.2129C25.8793 37.8632 27.5116 37.3898 28.9204 36.4972C30.3292 35.6047 31.4566 34.3296 32.1718 32.82L36.1414 24.4265C36.3903 23.8993 36.4203 23.2946 36.225 22.7453C36.0296 22.1959 35.6248 21.7467 35.0995 21.4965V21.496Z" fill="#002AFF"/>
<path d="M63.8171 34.875H64.191V11.5335H59.8354V12.877C58.9655 11.9345 57.5014 11.133 55.3662 11.133C50.4893 11.133 47.4837 15.165 47.4837 19.984C47.4837 24.9795 50.6922 28.935 55.4635 28.935C57.2641 28.935 58.7581 28.36 59.7377 27.355V34.875H63.8171ZM77.1295 27.43C77.1544 27.75 77.1873 28.034 77.2212 28.225L77.276 28.535H81.6141L81.5693 28.1195C81.4626 27.1465 81.4092 26.1684 81.4092 25.1895V11.534H76.8907V21.5195C76.8907 22.5245 76.623 23.337 76.1414 23.893C75.6658 24.442 74.9465 24.782 73.9489 24.782C72.916 24.782 72.235 24.402 71.8008 23.829C71.3547 23.24 71.1373 22.404 71.1373 21.453V11.5335H66.6192V22.1535C66.6192 24.03 67.195 25.7415 68.2888 26.989C69.3875 28.242 70.9868 29.002 72.9738 29.002C74.5158 29.002 76.1075 28.472 77.1295 27.4295V27.43ZM95.3333 27.056C95.3687 27.584 95.42 27.9925 95.4614 28.2255L95.5162 28.5345H99.8494L99.8095 28.1235L99.807 28.0985C99.7711 27.7295 99.649 26.4735 99.649 25.19V11.5335H95.2281V12.757C94.4175 11.854 93.0252 11.0665 90.9538 11.0665C86.1471 11.0665 83.0065 15.0925 83.0065 19.9505C83.0065 22.462 83.7772 24.7135 85.173 26.3435C86.5729 27.9785 88.5859 28.9685 91.0186 28.9685C92.8921 28.9685 94.3916 28.198 95.3333 27.056ZM117.775 4V3.625H113.354V12.643C112.536 11.808 111.157 11.1 109.079 11.1C104.37 11.1 101.164 15.159 101.164 19.984C101.164 25.047 104.341 28.935 109.144 28.935C111.01 28.935 112.514 28.191 113.468 27.146C113.503 27.594 113.549 28.0125 113.586 28.225L113.641 28.535H117.985L117.934 28.1145C117.828 27.1431 117.775 26.1667 117.775 25.1895V4ZM136.028 4V3.625H131.607V12.6435C130.789 11.808 129.41 11.1 127.333 11.1C122.623 11.1 119.418 15.159 119.418 19.984C119.418 25.047 122.595 28.935 127.398 28.935C129.263 28.935 130.767 28.191 131.722 27.146C131.756 27.594 131.803 28.013 131.841 28.2255L131.895 28.5345H136.239L136.188 28.1145C136.082 27.1431 136.028 26.1667 136.028 25.1895V4ZM148.918 11.8085V11.5025L148.619 11.441C148.262 11.3704 147.899 11.3344 147.536 11.3335C145.834 11.3335 144.309 11.9905 143.327 13.1785V11.5335H138.906V28.535H143.425V20.4185C143.425 18.947 143.748 17.8575 144.366 17.1385C144.975 16.43 145.921 16.0215 147.309 16.0215C147.678 16.0215 148.081 16.053 148.486 16.117L148.918 16.1855V11.809V11.8085ZM52.0347 19.984C52.0347 18.5 52.4459 17.334 53.1189 16.5445C53.7874 15.761 54.7376 15.3205 55.8862 15.3205C57.0178 15.3205 57.978 15.7605 58.6594 16.547C59.3444 17.337 59.7706 18.5035 59.7706 19.984C59.7706 21.4655 59.3439 22.668 58.655 23.4935C57.9695 24.3145 57.0099 24.7815 55.8862 24.7815C54.7635 24.7815 53.8119 24.3145 53.1349 23.495C52.4534 22.67 52.0347 21.467 52.0347 19.984ZM87.5245 19.9505C87.5245 18.4505 87.9443 17.2585 88.6302 16.4475C89.3122 15.6425 90.2788 15.187 91.4414 15.187C92.585 15.187 93.5262 15.6405 94.1882 16.444C94.8557 17.254 95.2605 18.447 95.2605 19.951C95.2605 21.453 94.8477 22.692 94.1713 23.547C93.4998 24.3955 92.5576 24.882 91.4414 24.882C90.2395 24.882 89.2743 24.3835 88.6013 23.534C87.9223 22.677 87.5245 21.439 87.5245 19.951V19.9505ZM105.682 19.984C105.682 18.505 106.116 17.33 106.81 16.5305C107.501 15.7345 108.469 15.287 109.599 15.287C110.73 15.287 111.663 15.726 112.32 16.509C112.982 17.298 113.386 18.465 113.386 19.9505C113.386 21.4355 112.974 22.6475 112.299 23.481C111.63 24.3085 110.687 24.781 109.567 24.781C108.391 24.781 107.434 24.312 106.763 23.496C106.087 22.6725 105.682 21.4705 105.682 19.984ZM123.936 19.984C123.936 18.505 124.369 17.33 125.063 16.5305C125.754 15.7345 126.722 15.287 127.853 15.287C128.983 15.287 129.917 15.726 130.573 16.509C131.235 17.298 131.64 18.465 131.64 19.9505C131.64 21.4355 131.227 22.6475 130.553 23.481C129.883 24.3085 128.941 24.781 127.821 24.781C126.645 24.781 125.687 24.312 125.017 23.496C124.341 22.6725 123.936 21.4705 123.936 19.984ZM158.779 24.815C157.724 24.815 156.719 24.404 155.976 23.6105C155.234 22.8185 154.733 21.622 154.733 20.0175C154.733 18.413 155.234 17.235 155.973 16.4605C156.715 15.6845 157.72 15.287 158.779 15.287C159.856 15.287 160.86 15.685 161.597 16.4595C162.332 17.2335 162.826 18.4115 162.826 20.0175C162.826 21.6415 162.331 22.837 161.595 23.6235C160.858 24.41 159.854 24.815 158.779 24.815ZM158.779 11.033C153.844 11.033 150.214 14.8545 150.214 20.0175C150.214 25.2125 153.843 29.0355 158.779 29.0355C163.747 29.0355 167.377 25.214 167.377 20.0175C167.377 14.8535 163.746 11.033 158.779 11.033Z" fill="#1A202C" stroke="#1A202C" stroke-width="1.5"/>
</g>
<defs>
<clipPath id="clip0_1_6">
<rect width="168" height="38" fill="white"/>
</clipPath>
</defs>
</svg>
