<svg width="35" height="38" viewBox="0 0 35 38" fill="none" xmlns="http://www.w3.org/2000/svg">
<path fill-rule="evenodd" clip-rule="evenodd" d="M1.28622 16.366L5.3601 18.3115L10.2605 8.259C10.4418 7.88757 10.7234 7.57465 11.0733 7.35587C11.4232 7.13709 11.8273 7.02124 12.2396 7.0215H23.5839C25.209 7.0215 26.2744 8.7235 25.5645 10.1865L23.5345 14.3715C23.407 14.6344 23.3331 14.9202 23.317 15.2121C23.3008 15.504 23.3429 15.7962 23.4406 16.0717C23.5384 16.3471 23.6899 16.6002 23.8862 16.8163C24.0826 17.0323 24.32 17.207 24.5844 17.33L28.7505 19.275L31.6603 13.691C34.9087 7.458 30.3891 1.32523e-06 23.3645 1.32523e-06H12.1728C10.5063 -0.000914066 8.87376 0.472411 7.46477 1.365C6.05579 2.25758 4.92821 3.53279 4.21301 5.0425L0.24482 13.4355C-0.00432957 13.9627 -0.0345349 14.5676 0.160845 15.1171C0.356225 15.6666 0.761196 16.1159 1.28672 16.366H1.28622ZM33.0995 21.496L29.0257 19.551L24.1252 29.6035C23.9439 29.9748 23.6622 30.2877 23.3124 30.5063C22.9625 30.725 22.5584 30.8408 22.1461 30.8405H10.8019C9.17674 30.8405 8.11141 29.139 8.8213 27.6755L10.8508 23.4905C10.9782 23.2276 11.0521 22.9419 11.0682 22.6501C11.0843 22.3583 11.0423 22.0661 10.9446 21.7908C10.8469 21.5154 10.6955 21.2623 10.4992 21.0463C10.3029 20.8302 10.0657 20.6556 9.80138 20.5325L5.63528 18.587L2.72544 24.1715C-0.522396 30.4045 3.99666 37.8625 11.0212 37.8625H22.2129C23.8793 37.8632 25.5116 37.3898 26.9204 36.4972C28.3292 35.6047 29.4566 34.3296 30.1718 32.82L34.1414 24.4265C34.3903 23.8993 34.4203 23.2946 34.225 22.7453C34.0296 22.1959 33.6248 21.7467 33.0995 21.4965V21.496Z" fill="#002AFF"/>
</svg>
